<svg width="300" height="250" viewBox="0 0 300 250" fill="none" xmlns="http://www.w3.org/2000/svg">
<rect width="300" height="250" fill="#FFB904"/>
<path d="M84.2 123.728H89.048C90.344 123.728 92.192 124.52 92.192 126.032C92.192 127.616 90.344 128.048 89.048 128.048H84.2V123.728ZM84.2 117.08H89.048C91.064 117.08 91.688 118.376 91.688 119.144C91.688 120.104 91.04 120.944 89.048 120.944H84.2V117.08ZM89.048 114.2C86.384 114.2 83.72 114.2 81.08 114.2V131C83.744 131 86.384 131 89.048 131C92.528 131 95.336 129.8 95.336 126.056C95.336 125 94.616 122.912 92.648 122.312C94.208 121.616 94.832 120.368 94.832 119.072C94.832 115.688 92.36 114.2 89.048 114.2Z" fill="#FDF5E6"/>
<path d="M97.3428 119.168V131H100.271V124.76C100.271 122.576 101.687 121.76 103.223 121.76C104.183 121.76 104.735 122.024 105.335 122.528L106.655 119.984C106.007 119.336 104.831 118.856 103.607 118.856C102.407 118.856 101.183 119.072 100.271 120.536L100.055 119.168H97.3428ZM110.677 119.12V131H107.749V119.12H110.677ZM107.485 115.832C107.485 118.112 110.941 118.112 110.941 115.832C110.941 113.552 107.485 113.552 107.485 115.832ZM121.511 127.568C120.791 128.288 119.855 128.552 118.919 128.552C117.095 128.552 115.559 127.352 115.559 125.096C115.559 123.032 116.999 121.592 118.967 121.592C119.783 121.592 120.647 121.904 121.343 122.528L123.191 120.584C121.895 119.312 120.599 118.832 118.919 118.832C115.487 118.832 112.631 120.896 112.631 125.096C112.631 129.296 115.487 131.36 118.919 131.36C120.671 131.36 122.111 130.832 123.479 129.488L121.511 127.568ZM130.567 118.928C126.799 118.928 124.447 121.712 124.447 125.096C124.447 128.504 126.751 131.264 130.591 131.264C134.431 131.264 136.759 128.504 136.759 125.096C136.759 121.712 134.335 118.928 130.567 118.928ZM130.591 121.592C132.559 121.592 133.807 123.32 133.807 125.096C133.807 126.896 132.727 128.576 130.591 128.576C128.455 128.576 127.375 126.896 127.375 125.096C127.375 123.32 128.479 121.592 130.591 121.592ZM139.746 116.144V119.192H137.538V121.712H139.746V126.824C139.746 129.776 141.426 131.24 143.994 131.144C144.882 131.12 145.578 130.976 146.418 130.64L145.602 128.144C145.17 128.36 144.642 128.504 144.186 128.504C143.274 128.504 142.65 127.952 142.65 126.824V121.712H145.938V119.192H142.674V115.832L139.746 116.144ZM159.868 126.128C160.324 121.256 157.852 118.808 153.892 118.808C150.052 118.808 147.604 121.4 147.604 125C147.604 128.792 150.028 131.312 154.108 131.312C155.908 131.312 157.948 130.688 159.196 129.392L157.324 127.544C156.652 128.24 155.236 128.648 154.156 128.648C152.092 128.648 150.82 127.592 150.628 126.128H159.868ZM150.676 123.704C151.108 122.168 152.404 121.4 153.988 121.4C155.668 121.4 156.868 122.168 157.06 123.704H150.676ZM170.308 127.568C169.588 128.288 168.652 128.552 167.716 128.552C165.892 128.552 164.356 127.352 164.356 125.096C164.356 123.032 165.796 121.592 167.764 121.592C168.58 121.592 169.444 121.904 170.14 122.528L171.988 120.584C170.692 119.312 169.396 118.832 167.716 118.832C164.284 118.832 161.428 120.896 161.428 125.096C161.428 129.296 164.284 131.36 167.716 131.36C169.468 131.36 170.908 130.832 172.276 129.488L170.308 127.568ZM173.562 114.2V131H176.49V124.952C176.49 123.176 177.69 121.712 179.418 121.712C180.978 121.712 182.106 122.624 182.106 124.784V131H185.034V124.76C185.034 121.28 183.546 119 180.186 119C178.842 119 177.546 119.408 176.49 120.776V114.2H173.562ZM194.275 123.584C196.387 123.584 198.187 124.328 198.211 125.984C198.235 127.304 196.843 128.504 194.275 128.504C191.707 128.504 190.315 127.28 190.339 125.984C190.363 124.328 192.307 123.584 194.275 123.584ZM187.027 125.936C186.955 129.872 190.603 131.36 194.251 131.384C197.995 131.408 201.595 129.848 201.523 125.936C201.499 124.64 200.707 122.888 198.979 122.192C200.491 121.568 201.139 120.176 201.139 119.024C201.139 115.664 197.875 113.912 194.251 113.912C190.603 113.912 187.483 115.64 187.483 119.024C187.483 120.32 188.155 121.568 189.595 122.336C187.867 123.032 187.051 124.64 187.027 125.936ZM190.723 118.928C190.675 117.776 191.875 116.552 194.251 116.552C196.387 116.552 197.875 117.512 197.827 118.928C197.779 120.392 196.219 121.28 194.275 121.28C192.427 121.28 190.771 120.392 190.723 118.928ZM210.156 123.68C213.18 123.68 213.732 124.928 213.732 125.936C213.732 127.736 211.596 128.408 209.988 128.408C208.62 128.408 206.292 127.808 206.292 126.08H203.1C203.124 129.896 206.772 131.24 209.964 131.24C213.204 131.24 217.068 130.016 217.068 125.912C217.068 124.496 215.94 122.912 214.332 122.384C215.796 121.928 216.66 120.392 216.66 119.072C216.636 115.496 213.228 113.96 210.06 113.96C206.964 113.96 203.364 115.28 203.364 118.904H206.532C206.532 117.368 208.548 116.84 210.036 116.84C212.724 116.84 213.492 118.112 213.492 119.072C213.468 120.632 211.668 121.088 209.964 121.088H207.54V123.68H210.156Z" fill="#343434"/>
</svg>
