<svg width="137" height="19" viewBox="0 0 137 19" fill="none" xmlns="http://www.w3.org/2000/svg">
<path d="M3.2 10.728H8.048C9.344 10.728 11.192 11.52 11.192 13.032C11.192 14.616 9.344 15.048 8.048 15.048H3.2V10.728ZM3.2 4.08H8.048C10.064 4.08 10.688 5.376 10.688 6.144C10.688 7.104 10.04 7.944 8.048 7.944H3.2V4.08ZM8.048 1.2C5.384 1.2 2.72 1.2 0.08 1.2V18C2.744 18 5.384 18 8.048 18C11.528 18 14.336 16.8 14.336 13.056C14.336 12 13.616 9.912 11.648 9.312C13.208 8.616 13.832 7.368 13.832 6.072C13.832 2.688 11.36 1.2 8.048 1.2Z" fill="#FDF5E6"/>
<path d="M16.3428 6.168V18H19.2708V11.76C19.2708 9.576 20.6868 8.76 22.2228 8.76C23.1828 8.76 23.7348 9.024 24.3348 9.528L25.6548 6.984C25.0068 6.336 23.8308 5.856 22.6068 5.856C21.4068 5.856 20.1828 6.072 19.2708 7.536L19.0548 6.168H16.3428ZM29.6771 6.12V18H26.7491V6.12H29.6771ZM26.4851 2.832C26.4851 5.112 29.9411 5.112 29.9411 2.832C29.9411 0.551999 26.4851 0.551999 26.4851 2.832ZM40.5112 14.568C39.7912 15.288 38.8552 15.552 37.9192 15.552C36.0952 15.552 34.5592 14.352 34.5592 12.096C34.5592 10.032 35.9992 8.592 37.9672 8.592C38.7832 8.592 39.6472 8.904 40.3432 9.528L42.1912 7.584C40.8952 6.312 39.5992 5.832 37.9192 5.832C34.4872 5.832 31.6312 7.896 31.6312 12.096C31.6312 16.296 34.4872 18.36 37.9192 18.36C39.6712 18.36 41.1112 17.832 42.4792 16.488L40.5112 14.568ZM49.5671 5.928C45.7991 5.928 43.4471 8.712 43.4471 12.096C43.4471 15.504 45.7511 18.264 49.5911 18.264C53.4311 18.264 55.7591 15.504 55.7591 12.096C55.7591 8.712 53.3351 5.928 49.5671 5.928ZM49.5911 8.592C51.5591 8.592 52.8071 10.32 52.8071 12.096C52.8071 13.896 51.7271 15.576 49.5911 15.576C47.4551 15.576 46.3751 13.896 46.3751 12.096C46.3751 10.32 47.4791 8.592 49.5911 8.592ZM58.7459 3.144V6.192H56.5379V8.712H58.7459V13.824C58.7459 16.776 60.4259 18.24 62.9939 18.144C63.8819 18.12 64.5779 17.976 65.4179 17.64L64.6019 15.144C64.1699 15.36 63.6419 15.504 63.1859 15.504C62.2739 15.504 61.6499 14.952 61.6499 13.824V8.712H64.9379V6.192H61.6739V2.832L58.7459 3.144ZM78.8679 13.128C79.3239 8.256 76.8519 5.808 72.8919 5.808C69.0519 5.808 66.6039 8.4 66.6039 12C66.6039 15.792 69.0279 18.312 73.1079 18.312C74.9079 18.312 76.9479 17.688 78.1959 16.392L76.3239 14.544C75.6519 15.24 74.2359 15.648 73.1559 15.648C71.0919 15.648 69.8199 14.592 69.6279 13.128H78.8679ZM69.6759 10.704C70.1079 9.168 71.4039 8.4 72.9879 8.4C74.6679 8.4 75.8679 9.168 76.0599 10.704H69.6759ZM89.3081 14.568C88.5881 15.288 87.6521 15.552 86.7161 15.552C84.8921 15.552 83.3561 14.352 83.3561 12.096C83.3561 10.032 84.7961 8.592 86.7641 8.592C87.5801 8.592 88.4441 8.904 89.1401 9.528L90.9881 7.584C89.6921 6.312 88.3961 5.832 86.7161 5.832C83.2841 5.832 80.4281 7.896 80.4281 12.096C80.4281 16.296 83.2841 18.36 86.7161 18.36C88.4681 18.36 89.9081 17.832 91.2761 16.488L89.3081 14.568ZM92.5616 1.2V18H95.4896V11.952C95.4896 10.176 96.6896 8.712 98.4176 8.712C99.9776 8.712 101.106 9.624 101.106 11.784V18H104.034V11.76C104.034 8.28 102.546 6 99.1856 6C97.8416 6 96.5456 6.408 95.4896 7.776V1.2H92.5616ZM113.275 10.584C115.387 10.584 117.187 11.328 117.211 12.984C117.235 14.304 115.843 15.504 113.275 15.504C110.707 15.504 109.315 14.28 109.339 12.984C109.363 11.328 111.307 10.584 113.275 10.584ZM106.027 12.936C105.955 16.872 109.603 18.36 113.251 18.384C116.995 18.408 120.595 16.848 120.523 12.936C120.499 11.64 119.707 9.888 117.979 9.192C119.491 8.568 120.139 7.176 120.139 6.024C120.139 2.664 116.875 0.912 113.251 0.912C109.603 0.912 106.483 2.64 106.483 6.024C106.483 7.32 107.155 8.568 108.595 9.336C106.867 10.032 106.051 11.64 106.027 12.936ZM109.723 5.928C109.675 4.776 110.875 3.552 113.251 3.552C115.387 3.552 116.875 4.512 116.827 5.928C116.779 7.392 115.219 8.28 113.275 8.28C111.427 8.28 109.771 7.392 109.723 5.928ZM129.156 10.68C132.18 10.68 132.732 11.928 132.732 12.936C132.732 14.736 130.596 15.408 128.988 15.408C127.62 15.408 125.292 14.808 125.292 13.08H122.1C122.124 16.896 125.772 18.24 128.964 18.24C132.204 18.24 136.068 17.016 136.068 12.912C136.068 11.496 134.94 9.912 133.332 9.384C134.796 8.928 135.66 7.392 135.66 6.072C135.636 2.496 132.228 0.959999 129.06 0.959999C125.964 0.959999 122.364 2.28 122.364 5.904H125.532C125.532 4.368 127.548 3.84 129.036 3.84C131.724 3.84 132.492 5.112 132.492 6.072C132.468 7.632 130.668 8.088 128.964 8.088H126.54V10.68H129.156Z" fill="#343434"/>
</svg>
