<svg width="600" height="271" viewBox="0 0 600 271" fill="none" xmlns="http://www.w3.org/2000/svg">
<g clip-path="url(#clip0)">
<rect width="600" height="271" fill="white"/>
<rect width="662" height="34" fill="#E5E5E5"/>
<path fill-rule="evenodd" clip-rule="evenodd" d="M109.475 23.1588C112.789 23.1588 115.475 20.4725 115.475 17.1588C115.475 13.8451 112.789 11.1588 109.475 11.1588C106.162 11.1588 103.475 13.8451 103.475 17.1588C103.475 20.4725 106.162 23.1588 109.475 23.1588Z" fill="#A7F9AA"/>
<path fill-rule="evenodd" clip-rule="evenodd" d="M79.0766 23.1588C82.3907 23.1588 85.0769 20.4725 85.0769 17.1588C85.0769 13.8451 82.3907 11.1588 79.0766 11.1588C75.7631 11.1588 73.0769 13.8451 73.0769 17.1588C73.0769 20.4725 75.7631 23.1588 79.0766 23.1588Z" fill="#FED366"/>
<path fill-rule="evenodd" clip-rule="evenodd" d="M48.6778 23.1588C51.9917 23.1588 54.6779 20.4725 54.6779 17.1588C54.6779 13.8451 51.9917 11.1588 48.6778 11.1588C45.3641 11.1588 42.6779 13.8451 42.6779 17.1588C42.6779 20.4725 45.3641 23.1588 48.6778 23.1588Z" fill="#FA7171"/>
</g>
<defs>
<clipPath id="clip0">
<rect width="600" height="271" fill="white"/>
</clipPath>
</defs>
</svg>
