<svg width="478" height="340" viewBox="0 0 478 340" fill="none" xmlns="http://www.w3.org/2000/svg">
<rect width="478" height="340" fill="white"/>
<rect width="478" height="34" fill="#E5E5E5"/>
<path fill-rule="evenodd" clip-rule="evenodd" d="M86.0679 20.9387C88.074 20.9387 89.7007 19.3855 89.7007 17.4694C89.7007 15.5533 88.074 14 86.0679 14C84.0618 14 82.4355 15.5533 82.4355 17.4694C82.4355 19.3855 84.0618 20.9387 86.0679 20.9387Z" fill="#A7F9AA"/>
<path fill-rule="evenodd" clip-rule="evenodd" d="M61.8504 20.9387C63.8569 20.9387 65.4832 19.3855 65.4832 17.4694C65.4832 15.5533 63.8569 14 61.8504 14C59.8443 14 58.218 15.5533 58.218 17.4694C58.218 19.3855 59.8443 20.9387 61.8504 20.9387Z" fill="#FED366"/>
<path fill-rule="evenodd" clip-rule="evenodd" d="M37.6327 20.9387C39.639 20.9387 41.2654 19.3855 41.2654 17.4694C41.2654 15.5533 39.639 14 37.6327 14C35.6264 14 34 15.5533 34 17.4694C34 19.3855 35.6264 20.9387 37.6327 20.9387Z" fill="#FA7171"/>
</svg>
