<svg width="300" height="250" viewBox="0 0 300 250" fill="none" xmlns="http://www.w3.org/2000/svg">
<rect width="300" height="250" fill="#004643"/>
<path d="M123.531 117.586C123.32 119.391 122.652 120.785 121.527 121.77C120.41 122.746 118.922 123.234 117.062 123.234C115.047 123.234 113.43 122.512 112.211 121.066C111 119.621 110.395 117.688 110.395 115.266V113.625C110.395 112.039 110.676 110.645 111.238 109.441C111.809 108.238 112.613 107.316 113.652 106.676C114.691 106.027 115.895 105.703 117.262 105.703C119.074 105.703 120.527 106.211 121.621 107.227C122.715 108.234 123.352 109.633 123.531 111.422H121.27C121.074 110.062 120.648 109.078 119.992 108.469C119.344 107.859 118.434 107.555 117.262 107.555C115.824 107.555 114.695 108.086 113.875 109.148C113.062 110.211 112.656 111.723 112.656 113.684V115.336C112.656 117.188 113.043 118.66 113.816 119.754C114.59 120.848 115.672 121.395 117.062 121.395C118.312 121.395 119.27 121.113 119.934 120.551C120.605 119.98 121.051 118.992 121.27 117.586H123.531ZM125.699 116.543C125.699 115.301 125.941 114.184 126.426 113.191C126.918 112.199 127.598 111.434 128.465 110.895C129.34 110.355 130.336 110.086 131.453 110.086C133.18 110.086 134.574 110.684 135.637 111.879C136.707 113.074 137.242 114.664 137.242 116.648V116.801C137.242 118.035 137.004 119.145 136.527 120.129C136.059 121.105 135.383 121.867 134.5 122.414C133.625 122.961 132.617 123.234 131.477 123.234C129.758 123.234 128.363 122.637 127.293 121.441C126.23 120.246 125.699 118.664 125.699 116.695V116.543ZM127.879 116.801C127.879 118.207 128.203 119.336 128.852 120.188C129.508 121.039 130.383 121.465 131.477 121.465C132.578 121.465 133.453 121.035 134.102 120.176C134.75 119.309 135.074 118.098 135.074 116.543C135.074 115.152 134.742 114.027 134.078 113.168C133.422 112.301 132.547 111.867 131.453 111.867C130.383 111.867 129.52 112.293 128.863 113.145C128.207 113.996 127.879 115.215 127.879 116.801ZM146.09 112.266C145.762 112.211 145.406 112.184 145.023 112.184C143.602 112.184 142.637 112.789 142.129 114V123H139.961V110.32H142.07L142.105 111.785C142.816 110.652 143.824 110.086 145.129 110.086C145.551 110.086 145.871 110.141 146.09 110.25V112.266ZM147.285 116.543C147.285 115.301 147.527 114.184 148.012 113.191C148.504 112.199 149.184 111.434 150.051 110.895C150.926 110.355 151.922 110.086 153.039 110.086C154.766 110.086 156.16 110.684 157.223 111.879C158.293 113.074 158.828 114.664 158.828 116.648V116.801C158.828 118.035 158.59 119.145 158.113 120.129C157.645 121.105 156.969 121.867 156.086 122.414C155.211 122.961 154.203 123.234 153.062 123.234C151.344 123.234 149.949 122.637 148.879 121.441C147.816 120.246 147.285 118.664 147.285 116.695V116.543ZM149.465 116.801C149.465 118.207 149.789 119.336 150.438 120.188C151.094 121.039 151.969 121.465 153.062 121.465C154.164 121.465 155.039 121.035 155.688 120.176C156.336 119.309 156.66 118.098 156.66 116.543C156.66 115.152 156.328 114.027 155.664 113.168C155.008 112.301 154.133 111.867 153.039 111.867C151.969 111.867 151.105 112.293 150.449 113.145C149.793 113.996 149.465 115.215 149.465 116.801ZM163.598 110.32L163.668 111.914C164.637 110.695 165.902 110.086 167.465 110.086C170.145 110.086 171.496 111.598 171.52 114.621V123H169.352V114.609C169.344 113.695 169.133 113.02 168.719 112.582C168.312 112.145 167.676 111.926 166.809 111.926C166.105 111.926 165.488 112.113 164.957 112.488C164.426 112.863 164.012 113.355 163.715 113.965V123H161.547V110.32H163.598ZM182.617 123C182.492 122.75 182.391 122.305 182.312 121.664C181.305 122.711 180.102 123.234 178.703 123.234C177.453 123.234 176.426 122.883 175.621 122.18C174.824 121.469 174.426 120.57 174.426 119.484C174.426 118.164 174.926 117.141 175.926 116.414C176.934 115.68 178.348 115.312 180.168 115.312H182.277V114.316C182.277 113.559 182.051 112.957 181.598 112.512C181.145 112.059 180.477 111.832 179.594 111.832C178.82 111.832 178.172 112.027 177.648 112.418C177.125 112.809 176.863 113.281 176.863 113.836H174.684C174.684 113.203 174.906 112.594 175.352 112.008C175.805 111.414 176.414 110.945 177.18 110.602C177.953 110.258 178.801 110.086 179.723 110.086C181.184 110.086 182.328 110.453 183.156 111.188C183.984 111.914 184.414 112.918 184.445 114.199V120.035C184.445 121.199 184.594 122.125 184.891 122.812V123H182.617ZM179.02 121.348C179.699 121.348 180.344 121.172 180.953 120.82C181.562 120.469 182.004 120.012 182.277 119.449V116.848H180.578C177.922 116.848 176.594 117.625 176.594 119.18C176.594 119.859 176.82 120.391 177.273 120.773C177.727 121.156 178.309 121.348 179.02 121.348ZM191.84 120.059L194.98 110.32H197.195L192.648 123H190.996L186.402 110.32H188.617L191.84 120.059ZM201.637 123H199.469V110.32H201.637V123ZM199.293 106.957C199.293 106.605 199.398 106.309 199.609 106.066C199.828 105.824 200.148 105.703 200.57 105.703C200.992 105.703 201.312 105.824 201.531 106.066C201.75 106.309 201.859 106.605 201.859 106.957C201.859 107.309 201.75 107.602 201.531 107.836C201.312 108.07 200.992 108.188 200.57 108.188C200.148 108.188 199.828 108.07 199.609 107.836C199.398 107.602 199.293 107.309 199.293 106.957ZM211.246 112.266C210.918 112.211 210.562 112.184 210.18 112.184C208.758 112.184 207.793 112.789 207.285 114V123H205.117V110.32H207.227L207.262 111.785C207.973 110.652 208.98 110.086 210.285 110.086C210.707 110.086 211.027 110.141 211.246 110.25V112.266ZM221.078 121.746C220.234 122.738 218.996 123.234 217.363 123.234C216.012 123.234 214.98 122.844 214.27 122.062C213.566 121.273 213.211 120.109 213.203 118.57V110.32H215.371V118.512C215.371 120.434 216.152 121.395 217.715 121.395C219.371 121.395 220.473 120.777 221.02 119.543V110.32H223.188V123H221.125L221.078 121.746ZM233.875 119.637C233.875 119.051 233.652 118.598 233.207 118.277C232.77 117.949 232 117.668 230.898 117.434C229.805 117.199 228.934 116.918 228.285 116.59C227.645 116.262 227.168 115.871 226.855 115.418C226.551 114.965 226.398 114.426 226.398 113.801C226.398 112.762 226.836 111.883 227.711 111.164C228.594 110.445 229.719 110.086 231.086 110.086C232.523 110.086 233.688 110.457 234.578 111.199C235.477 111.941 235.926 112.891 235.926 114.047H233.746C233.746 113.453 233.492 112.941 232.984 112.512C232.484 112.082 231.852 111.867 231.086 111.867C230.297 111.867 229.68 112.039 229.234 112.383C228.789 112.727 228.566 113.176 228.566 113.73C228.566 114.254 228.773 114.648 229.188 114.914C229.602 115.18 230.348 115.434 231.426 115.676C232.512 115.918 233.391 116.207 234.062 116.543C234.734 116.879 235.23 117.285 235.551 117.762C235.879 118.23 236.043 118.805 236.043 119.484C236.043 120.617 235.59 121.527 234.684 122.215C233.777 122.895 232.602 123.234 231.156 123.234C230.141 123.234 229.242 123.055 228.461 122.695C227.68 122.336 227.066 121.836 226.621 121.195C226.184 120.547 225.965 119.848 225.965 119.098H228.133C228.172 119.824 228.461 120.402 229 120.832C229.547 121.254 230.266 121.465 231.156 121.465C231.977 121.465 232.633 121.301 233.125 120.973C233.625 120.637 233.875 120.191 233.875 119.637ZM118.18 131.859H114.523V142H113.031V131.859H109.383V130.625H118.18V131.859ZM124.039 137.398H121.367V142H119.859V130.625H123.625C124.906 130.625 125.891 130.917 126.578 131.5C127.271 132.083 127.617 132.932 127.617 134.047C127.617 134.755 127.424 135.372 127.039 135.898C126.659 136.424 126.128 136.818 125.445 137.078L128.117 141.906V142H126.508L124.039 137.398ZM121.367 136.172H123.672C124.417 136.172 125.008 135.979 125.445 135.594C125.888 135.208 126.109 134.693 126.109 134.047C126.109 133.344 125.898 132.805 125.477 132.43C125.06 132.055 124.456 131.865 123.664 131.859H121.367V136.172ZM136.008 139.031H131.242L130.172 142H128.625L132.969 130.625H134.281L138.633 142H137.094L136.008 139.031ZM131.695 137.797H135.562L133.625 132.477L131.695 137.797ZM148.438 138.391C148.297 139.594 147.852 140.523 147.102 141.18C146.357 141.831 145.365 142.156 144.125 142.156C142.781 142.156 141.703 141.674 140.891 140.711C140.083 139.747 139.68 138.458 139.68 136.844V135.75C139.68 134.693 139.867 133.763 140.242 132.961C140.622 132.159 141.159 131.544 141.852 131.117C142.544 130.685 143.346 130.469 144.258 130.469C145.466 130.469 146.435 130.807 147.164 131.484C147.893 132.156 148.318 133.089 148.438 134.281H146.93C146.799 133.375 146.516 132.719 146.078 132.312C145.646 131.906 145.039 131.703 144.258 131.703C143.299 131.703 142.547 132.057 142 132.766C141.458 133.474 141.188 134.482 141.188 135.789V136.891C141.188 138.125 141.445 139.107 141.961 139.836C142.477 140.565 143.198 140.93 144.125 140.93C144.958 140.93 145.596 140.742 146.039 140.367C146.487 139.987 146.784 139.328 146.93 138.391H148.438ZM153.383 136.711L151.992 138.156V142H150.492V130.625H151.992V136.25L157.047 130.625H158.859L154.383 135.648L159.211 142H157.414L153.383 136.711ZM166.953 136.742H162.023V140.773H167.75V142H160.523V130.625H167.672V131.859H162.023V135.516H166.953V136.742ZM173.789 137.398H171.117V142H169.609V130.625H173.375C174.656 130.625 175.641 130.917 176.328 131.5C177.021 132.083 177.367 132.932 177.367 134.047C177.367 134.755 177.174 135.372 176.789 135.898C176.409 136.424 175.878 136.818 175.195 137.078L177.867 141.906V142H176.258L173.789 137.398ZM171.117 136.172H173.422C174.167 136.172 174.758 135.979 175.195 135.594C175.638 135.208 175.859 134.693 175.859 134.047C175.859 133.344 175.648 132.805 175.227 132.43C174.81 132.055 174.206 131.865 173.414 131.859H171.117V136.172Z" fill="white"/>
<path d="M99.2216 122.222H97.1171C92.1679 122.222 89.6884 116.238 93.1884 112.738L94.6757 111.249C95.1661 110.722 95.433 110.026 95.4202 109.307C95.4074 108.587 95.1158 107.901 94.6069 107.392C94.0981 106.883 93.4116 106.592 92.6922 106.579C91.9727 106.567 91.2764 106.834 90.75 107.324L89.2617 108.811C85.7617 112.31 79.7783 109.831 79.7783 104.882V102.777C79.7783 102.04 79.4856 101.334 78.9645 100.813C78.4435 100.292 77.7368 99.999 77 99.999C76.2631 99.999 75.5564 100.292 75.0354 100.813C74.5144 101.334 74.2216 102.04 74.2216 102.777V104.883C74.2216 109.832 68.2382 112.311 64.7382 108.812L63.25 107.324C62.7235 106.834 62.0272 106.567 61.3078 106.579C60.5883 106.592 59.9019 106.883 59.393 107.392C58.8841 107.901 58.5925 108.587 58.5797 109.307C58.5669 110.026 58.8338 110.722 59.3242 111.249L60.8134 112.738C64.3134 116.238 61.8339 122.222 56.8847 122.222H54.7783C54.4091 122.215 54.0423 122.281 53.6992 122.418C53.3561 122.554 53.0437 122.758 52.7801 123.017C52.5166 123.275 52.3073 123.584 52.1644 123.924C52.0215 124.265 51.9479 124.63 51.9479 125C51.9479 125.369 52.0215 125.734 52.1644 126.075C52.3073 126.415 52.5166 126.724 52.7801 126.982C53.0437 127.241 53.3561 127.445 53.6992 127.581C54.0423 127.718 54.4091 127.784 54.7783 127.777H56.8828C61.832 127.777 64.3115 133.762 60.8115 137.262L59.3242 138.75C58.8386 139.277 58.5757 139.972 58.5905 140.689C58.6054 141.406 58.8967 142.089 59.4037 142.596C59.9107 143.103 60.594 143.395 61.3108 143.409C62.0277 143.424 62.7225 143.161 63.25 142.676L64.7382 141.187C68.2382 137.687 74.2216 140.166 74.2216 145.115V147.219C74.2216 147.956 74.5144 148.662 75.0354 149.183C75.5564 149.704 76.2631 149.997 77 149.997C77.7368 149.997 78.4435 149.704 78.9645 149.183C79.4856 148.662 79.7783 147.956 79.7783 147.219V145.117C79.7783 140.168 85.7617 137.688 89.2617 141.188L90.75 142.676C91.2775 143.161 91.9723 143.424 92.6891 143.409C93.4059 143.395 94.0892 143.103 94.5962 142.596C95.1032 142.089 95.3946 141.406 95.4094 140.689C95.4242 139.972 95.1613 139.277 94.6757 138.75L93.1865 137.262C89.6865 133.762 92.166 127.777 97.1152 127.777H99.2187C99.5879 127.784 99.9547 127.718 100.298 127.581C100.641 127.445 100.953 127.241 101.217 126.982C101.48 126.724 101.69 126.415 101.833 126.075C101.976 125.734 102.049 125.369 102.049 125C102.049 124.63 101.976 124.265 101.833 123.924C101.69 123.584 101.48 123.275 101.217 123.017C100.953 122.758 100.641 122.554 100.298 122.418C99.9547 122.281 99.5879 122.215 99.2187 122.222H99.2216ZM73.875 126.563C72.9479 126.563 72.0416 126.288 71.2707 125.773C70.4999 125.257 69.8991 124.525 69.5443 123.669C69.1895 122.812 69.0967 121.87 69.2775 120.961C69.4584 120.051 69.9048 119.216 70.5604 118.56C71.216 117.905 72.0512 117.458 72.9605 117.278C73.8698 117.097 74.8123 117.19 75.6688 117.544C76.5253 117.899 77.2574 118.5 77.7725 119.271C78.2875 120.042 78.5625 120.948 78.5625 121.875C78.5625 123.118 78.0686 124.31 77.1895 125.19C76.3104 126.069 75.1182 126.563 73.875 126.563V126.563ZM81.6875 132.031C81.2239 132.031 80.7708 131.894 80.3853 131.636C79.9999 131.379 79.6995 131.013 79.5221 130.584C79.3447 130.156 79.2983 129.685 79.3887 129.23C79.4792 128.776 79.7024 128.358 80.0302 128.03C80.358 127.702 80.7756 127.479 81.2302 127.389C81.6849 127.298 82.1561 127.345 82.5844 127.522C83.0126 127.7 83.3787 128 83.6362 128.385C83.8938 128.771 84.0312 129.224 84.0312 129.688C84.0312 130.309 83.7843 130.905 83.3447 131.345C82.9052 131.784 82.3091 132.031 81.6875 132.031Z" fill="white"/>
</svg>
