<svg xmlns="http://www.w3.org/2000/svg" xmlns:xlink="http://www.w3.org/1999/xlink" aria-hidden="true" role="img" class="iconify iconify--ph" width="1em" height="1em" preserveAspectRatio="xMidYMid meet" viewBox="0 0 256 256"><path d="M229.183 172.977a6 6 0 0 1-2.16 8.206l-96 56a6 6 0 0 1-6.046 0l-96-56a6 6 0 0 1 6.046-10.366L128 225.054l92.977-54.237a6 6 0 0 1 8.206 2.16zm-8.206-50.16L128 177.054l-92.977-54.237a6 6 0 0 0-6.046 10.366l96 56a6 6 0 0 0 6.046 0l96-56a6 6 0 0 0-6.046-10.366zM26 80a6 6 0 0 1 2.977-5.183l96-56a6 6 0 0 1 6.046 0l96 56a6 6 0 0 1 0 10.366l-96 56a6 6 0 0 1-6.046 0l-96-56A6 6 0 0 1 26 80zm17.908 0L128 129.054L212.092 80L128 30.946z" fill=" #ff8c00"></path></svg>