<svg width="284" height="269" viewBox="0 0 284 269" fill="none" xmlns="http://www.w3.org/2000/svg">
<path d="M252.5 48.3C235.5 48.3 221.7 62.1 221.7 79.1C221.7 81.5 222 83.9 222.5 86.1L174.1 106.1C169.7 98.1 162.8 91.6 154.6 87.6L171.3 40.3C171.9 40.4 172.5 40.4 173.1 40.4C184.2 40.4 193.3 31.3 193.3 20.2C193.3 9.1 184.2 0 173.1 0C162 0 152.9 9.1 152.9 20.2C152.9 27.2 156.5 33.4 161.9 37L145.1 84.3C141.9 83.6 138.5 83.2 135.1 83.2C128 83.2 121.3 84.9 115.3 87.8L100 64C105.5 58.9 109 51.5 109 43.4C109 27.9 96.4 15.2 80.8 15.2C65.2 15.2 52.6 27.9 52.6 43.4C52.6 58.9 65.2 71.6 80.8 71.6C84.6 71.6 88.3 70.8 91.6 69.4L106.9 93.2C99.5 99.2 94.1 107.5 91.8 117.1L32.8 109.5C31.4 102.1 24.8 96.4 17 96.4C8.10003 96.4 0.900024 103.6 0.900024 112.5C0.900024 121.4 8.10003 128.6 17 128.6C23.4 128.6 28.9 124.8 31.5 119.4L90.5 127C90.5 127.2 90.5 127.5 90.5 127.7C90.5 138.6 94.4 148.5 100.9 156.3L58.2 201.1C52.7 197.2 46.1 195 38.9 195C20.4 195 5.30002 210.1 5.30002 228.6C5.30002 247.1 20.4 262.2 38.9 262.2C57.4 262.2 72.5 247.1 72.5 228.6C72.5 220.8 69.9 213.7 65.4 208L108.1 163.2C114.3 167.9 121.7 171 129.8 172L128.3 198.7C121.7 200.7 117 206.9 117 214.1C117 223 124.2 230.2 133.1 230.2C142 230.2 149.2 223 149.2 214.1C149.2 207.1 144.7 201.1 138.3 198.9L139.8 172.1C145.2 171.5 150.3 170 155 167.6L198.2 234.2C194.9 237.8 192.8 242.6 192.8 247.9C192.8 259 201.9 268.1 213 268.1C224.1 268.1 233.2 259 233.2 247.9C233.2 236.8 224.1 227.7 213 227.7C210.7 227.7 208.6 228.1 206.5 228.8L163.3 162.2C167.4 158.8 171 154.6 173.6 149.9L210.5 165.9C210.5 166.4 210.4 166.9 210.4 167.4C210.4 176.3 217.6 183.5 226.5 183.5C235.4 183.5 242.6 176.3 242.6 167.4C242.6 158.5 235.4 151.3 226.5 151.3C221.7 151.3 217.4 153.4 214.5 156.7L177.6 140.7C178.9 136.6 179.5 132.2 179.5 127.7C179.5 123.4 178.9 119.3 177.8 115.4L226.2 95.3C231.6 104 241.3 109.8 252.3 109.8C269.3 109.8 283.1 96 283.1 79C283.1 62 269.4 48.3 252.5 48.3ZM173 10C178.6 10 183.2 14.6 183.2 20.2C183.2 25.8 178.6 30.4 173 30.4C167.4 30.4 162.8 25.8 162.8 20.2C162.8 14.6 167.4 10 173 10ZM62.6 43.4C62.6 33.4 70.8 25.2 80.8 25.2C90.8 25.2 99 33.4 99 43.4C99 53.4 90.8 61.6 80.8 61.6C70.8 61.6 62.6 53.4 62.6 43.4ZM17 118.6C13.6 118.6 10.9 115.9 10.9 112.5C10.9 109.1 13.6 106.4 17 106.4C20.4 106.4 23.1 109.1 23.1 112.5C23.1 115.9 20.4 118.6 17 118.6ZM223.3 247.8C223.3 253.4 218.7 258 213.1 258C207.5 258 202.9 253.4 202.9 247.8C202.9 242.2 207.5 237.6 213.1 237.6C218.7 237.6 223.3 242 223.3 247.8ZM226.7 161.2C230.1 161.2 232.8 163.9 232.8 167.3C232.8 170.7 230.1 173.4 226.7 173.4C223.3 173.4 220.6 170.7 220.6 167.3C220.6 163.9 223.3 161.2 226.7 161.2ZM38.9 252.1C25.9 252.1 15.3 241.5 15.3 228.5C15.3 215.5 25.9 204.9 38.9 204.9C51.9 204.9 62.5 215.5 62.5 228.5C62.5 241.5 51.9 252.1 38.9 252.1ZM133.1 220.1C129.7 220.1 127 217.4 127 214C127 210.6 129.7 207.9 133.1 207.9C136.5 207.9 139.2 210.6 139.2 214C139.2 217.4 136.5 220.1 133.1 220.1ZM135.1 162.3C116 162.3 100.5 146.8 100.5 127.7C100.5 108.6 116 93.1 135.1 93.1C154.2 93.1 169.7 108.6 169.7 127.7C169.7 146.8 154.2 162.3 135.1 162.3ZM252.5 99.8C241 99.8 231.7 90.5 231.7 79C231.7 67.5 241 58.2 252.5 58.2C264 58.2 273.3 67.5 273.3 79C273.3 90.5 263.9 99.8 252.5 99.8Z" fill="#343434"/>
</svg>
